<?xml version="1.0" encoding="utf-8"?>
<!-- Generator: Adobe Illustrator 19.2.1, SVG Export Plug-In . SVG Version: 6.00 Build 0)  -->
<svg version="1.1" id="Layer_1" xmlns="http://www.w3.org/2000/svg" xmlns:xlink="http://www.w3.org/1999/xlink" x="0px" y="0px"
	 viewBox="0 0 65.279 66.248" style="enable-background:new 0 0 65.279 66.248;" xml:space="preserve">
<style type="text/css">
	.st0{fill:#E58E1A;}
</style>
<g>
	<path class="st0" d="M65.279,32.859C65.279,13.743,49.58,0,30.511,0C19.8,0,10.75,4.674,4.374,13.142h8.038l0.537-0.016
		c4.435-3.26,10.2-5.198,17.384-5.198c15.255,0,25.899,10.043,25.899,25.019c0,14.095-8.958,25.372-24.834,25.372
		c-14.102,0-23.947-7.664-23.947-21.407c0-8.634,4.612-14.672,8.308-14.117c1.316,0.198,2.154,1.976,1.781,3.473
		c-0.017,0.07-0.034,0.19-0.052,0.268l-4.813,21.054h10.184l0.615-2.703c0.132,0.087,0.878,0.828,1.493,1.264
		c1.624,1.134,4.389,2.18,8.296,2.093c5.487-0.087,11.281-2.572,13.607-9.374c0.307-0.872,0.834-2.616,0.834-4.927
		c0-5.363-3.161-8.066-5.838-9.243c-0.922-0.436-2.546-0.872-4.872-0.872c-4.609,0-7.111,1.308-9.306,2.834l2.358-11.626
		l-9.928-0.005l-0.018,0.08C14.607,15.451,0,20.609,0,39.907c0,15.505,15.433,26.341,31.043,26.341
		C49.935,66.248,65.279,51.976,65.279,32.859L65.279,32.859z M25.492,36.646c0-1.613,0.702-3.924,2.809-5.145
		c1.01-0.61,2.195-0.872,3.336-0.872c2.809-0.044,5.311,1.221,5.355,4.578c0.088,3.488-2.59,6.148-6.101,6.191
		C29.969,41.398,25.492,41.224,25.492,36.646L25.492,36.646z"/>
</g>
</svg>
